<svg xmlns="http://www.w3.org/2000/svg" xmlns:xlink="http://www.w3.org/1999/xlink" width="40" zoomAndPan="magnify" viewBox="0 0 30 30.000001" height="40" preserveAspectRatio="xMidYMid meet" version="1.0"><defs><g/><clipPath id="20fc3374c2"><path d="M 2.515625 8.882812 L 27.195312 8.882812 L 27.195312 20.496094 L 2.515625 20.496094 Z M 2.515625 8.882812 " clip-rule="nonzero"/></clipPath><clipPath id="04bfe23215"><path d="M 4 8.882812 L 16 8.882812 L 16 20.496094 L 4 20.496094 Z M 4 8.882812 " clip-rule="nonzero"/></clipPath><clipPath id="3b778ad53b"><path d="M 12 17 L 27.195312 17 L 27.195312 20 L 12 20 Z M 12 17 " clip-rule="nonzero"/></clipPath><clipPath id="2eb14e2524"><path d="M 10 8.882812 L 20 8.882812 L 20 20.496094 L 10 20.496094 Z M 10 8.882812 " clip-rule="nonzero"/></clipPath><clipPath id="23b320b129"><path d="M 10 14 L 20 14 L 20 20.496094 L 10 20.496094 Z M 10 14 " clip-rule="nonzero"/></clipPath><clipPath id="ebec92408c"><path d="M 2.515625 8.882812 L 27.195312 8.882812 L 27.195312 12 L 2.515625 12 Z M 2.515625 8.882812 " clip-rule="nonzero"/></clipPath><clipPath id="1f46983fc2"><path d="M 2.515625 18 L 27.195312 18 L 27.195312 20.496094 L 2.515625 20.496094 Z M 2.515625 18 " clip-rule="nonzero"/></clipPath><clipPath id="57cd91c432"><path d="M 12 8.882812 L 20 8.882812 L 20 12 L 12 12 Z M 12 8.882812 " clip-rule="nonzero"/></clipPath><clipPath id="a90f288f52"><path d="M 12 18 L 20 18 L 20 20.496094 L 12 20.496094 Z M 12 18 " clip-rule="nonzero"/></clipPath><clipPath id="9b5db67392"><path d="M 2.515625 9 L 9 9 L 9 11 L 2.515625 11 Z M 2.515625 9 " clip-rule="nonzero"/></clipPath><clipPath id="fddc2db656"><path d="M 5 8.882812 L 9 8.882812 L 9 14 L 5 14 Z M 5 8.882812 " clip-rule="nonzero"/></clipPath><clipPath id="6441aa33c2"><path d="M 22 9 L 27.195312 9 L 27.195312 11 L 22 11 Z M 22 9 " clip-rule="nonzero"/></clipPath><clipPath id="dedd0dc87a"><path d="M 5 19 L 9 19 L 9 20.496094 L 5 20.496094 Z M 5 19 " clip-rule="nonzero"/></clipPath><clipPath id="3220906ddb"><path d="M 25 11 L 27.195312 11 L 27.195312 12 L 25 12 Z M 25 11 " clip-rule="nonzero"/></clipPath><clipPath id="a06e4361f2"><path d="M 25 12 L 27.195312 12 L 27.195312 13 L 25 13 Z M 25 12 " clip-rule="nonzero"/></clipPath><clipPath id="37e7b17ea9"><path d="M 25 13 L 27.195312 13 L 27.195312 14 L 25 14 Z M 25 13 " clip-rule="nonzero"/></clipPath><clipPath id="e2f793b22a"><path d="M 25 14 L 27.195312 14 L 27.195312 15 L 25 15 Z M 25 14 " clip-rule="nonzero"/></clipPath><clipPath id="def20fafe9"><path d="M 25 14 L 27.195312 14 L 27.195312 16 L 25 16 Z M 25 14 " clip-rule="nonzero"/></clipPath><clipPath id="01edb9e675"><path d="M 25 15 L 27.195312 15 L 27.195312 17 L 25 17 Z M 25 15 " clip-rule="nonzero"/></clipPath><clipPath id="85e4e37df2"><path d="M 25 16 L 27.195312 16 L 27.195312 17 L 25 17 Z M 25 16 " clip-rule="nonzero"/></clipPath><clipPath id="12def188cf"><path d="M 29 28 L 29.515625 28 L 29.515625 29.03125 L 29 29.03125 Z M 29 28 " clip-rule="nonzero"/></clipPath></defs><path stroke-linecap="round" transform="matrix(0.057336, 0, 0, 0.0598053, 0.520808, -0.26209)" fill="none" stroke-linejoin="round" d="M 159.740453 267.802505 C 159.740453 267.802505 152.927544 265.581755 149.657348 255.914962 " stroke="#3d3b2f" stroke-width="1.62" stroke-opacity="1" stroke-miterlimit="4"/><path fill="#3d3b2f" d="M 9.765625 15.753906 C 9.765625 15.8125 9.734375 15.839844 9.679688 15.839844 C 9.625 15.839844 9.59375 15.8125 9.59375 15.753906 C 9.59375 15.695312 9.625 15.664062 9.679688 15.664062 C 9.734375 15.664062 9.765625 15.695312 9.765625 15.753906 Z M 9.765625 15.753906 " fill-opacity="1" fill-rule="nonzero"/><g clip-path="url(#20fc3374c2)"><path fill="#f1f1f3" d="M 2.515625 8.886719 L 27.195312 8.886719 L 27.195312 20.492188 L 2.515625 20.492188 Z M 2.515625 8.886719 " fill-opacity="1" fill-rule="nonzero"/></g><path fill="#69aaea" d="M 21.09375 10.710938 L 21.925781 10.710938 L 21.925781 13.085938 L 21.09375 13.085938 Z M 21.09375 10.710938 " fill-opacity="1" fill-rule="nonzero"/><path fill="#69aaea" d="M 21.070312 13.503906 L 21.902344 13.503906 L 21.902344 15.875 L 21.070312 15.875 Z M 21.070312 13.503906 " fill-opacity="1" fill-rule="nonzero"/><path fill="#69aaea" d="M 21.046875 16.292969 L 21.878906 16.292969 L 21.878906 18.664062 L 21.046875 18.664062 Z M 21.046875 16.292969 " fill-opacity="1" fill-rule="nonzero"/><g clip-path="url(#04bfe23215)"><path fill="#7dacf0" d="M 4.320312 8.886719 L 4.398438 20.492188 L 15.746094 14.78125 Z M 4.320312 8.886719 " fill-opacity="1" fill-rule="nonzero"/></g><g clip-path="url(#3b778ad53b)"><path fill="#b6b99a" d="M 12.082031 17.132812 L 27.195312 17.132812 L 27.195312 19.121094 L 12.082031 19.121094 Z M 12.082031 17.132812 " fill-opacity="1" fill-rule="nonzero"/></g><g clip-path="url(#2eb14e2524)"><path fill="#7dacf0" d="M 19.40625 14.671875 L 10.03125 20.492188 L 10.03125 8.886719 Z M 19.40625 14.671875 " fill-opacity="1" fill-rule="nonzero"/></g><g clip-path="url(#23b320b129)"><path fill="#e7e1bd" d="M 19.40625 14.671875 L 10.03125 20.492188 L 10.03125 14.671875 Z M 19.40625 14.671875 " fill-opacity="1" fill-rule="nonzero"/></g><g clip-path="url(#ebec92408c)"><path fill="#c1dcef" d="M 2.515625 8.886719 L 27.195312 8.886719 L 27.195312 11.042969 L 2.515625 11.042969 Z M 2.515625 8.886719 " fill-opacity="1" fill-rule="nonzero"/></g><g clip-path="url(#1f46983fc2)"><path fill="#69aaea" d="M 2.515625 18.640625 L 27.195312 18.640625 L 27.195312 20.492188 L 2.515625 20.492188 Z M 2.515625 18.640625 " fill-opacity="1" fill-rule="nonzero"/></g><g clip-path="url(#57cd91c432)"><path fill="#d8bedb" d="M 12.734375 8.886719 L 19.402344 8.886719 L 19.402344 11.042969 L 12.734375 11.042969 Z M 12.734375 8.886719 " fill-opacity="1" fill-rule="nonzero"/></g><g clip-path="url(#a90f288f52)"><path fill="#d8bedb" d="M 12.734375 18.335938 L 19.402344 18.335938 L 19.402344 20.492188 L 12.734375 20.492188 Z M 12.734375 18.335938 " fill-opacity="1" fill-rule="nonzero"/></g><g clip-path="url(#9b5db67392)"><path fill="#82abe3" d="M 2.515625 9.582031 L 8.964844 9.582031 L 8.964844 10.347656 L 2.515625 10.347656 Z M 2.515625 9.582031 " fill-opacity="1" fill-rule="nonzero"/></g><g clip-path="url(#fddc2db656)"><path fill="#4c6f97" d="M 5.703125 8.886719 L 8.964844 8.886719 L 8.964844 13.027344 L 5.703125 13.027344 Z M 5.703125 8.886719 " fill-opacity="1" fill-rule="nonzero"/></g><path fill="#4c6f97" d="M 13.167969 9.410156 L 13.816406 9.410156 L 13.816406 10.085938 L 13.167969 10.085938 Z M 13.167969 9.410156 " fill-opacity="1" fill-rule="nonzero"/><path fill="#4c6f97" d="M 14.210938 9.410156 L 14.855469 9.410156 L 14.855469 10.085938 L 14.210938 10.085938 Z M 14.210938 9.410156 " fill-opacity="1" fill-rule="nonzero"/><path fill="#4c6f97" d="M 15.25 9.410156 L 15.894531 9.410156 L 15.894531 10.085938 L 15.25 10.085938 Z M 15.25 9.410156 " fill-opacity="1" fill-rule="nonzero"/><path fill="#4c6f97" d="M 16.289062 9.410156 L 16.933594 9.410156 L 16.933594 10.085938 L 16.289062 10.085938 Z M 16.289062 9.410156 " fill-opacity="1" fill-rule="nonzero"/><path fill="#4c6f97" d="M 17.328125 9.410156 L 17.972656 9.410156 L 17.972656 10.085938 L 17.328125 10.085938 Z M 17.328125 9.410156 " fill-opacity="1" fill-rule="nonzero"/><path fill="#4c6f97" d="M 18.367188 9.410156 L 19.011719 9.410156 L 19.011719 10.085938 L 18.367188 10.085938 Z M 18.367188 9.410156 " fill-opacity="1" fill-rule="nonzero"/><path fill="#4c6f97" d="M 19.40625 9.410156 L 20.054688 9.410156 L 20.054688 10.085938 L 19.40625 10.085938 Z M 19.40625 9.410156 " fill-opacity="1" fill-rule="nonzero"/><path fill="#4c6f97" d="M 20.445312 9.410156 L 21.09375 9.410156 L 21.09375 10.085938 L 20.445312 10.085938 Z M 20.445312 9.410156 " fill-opacity="1" fill-rule="nonzero"/><path fill="#4c6f97" d="M 21.484375 9.410156 L 22.132812 9.410156 L 22.132812 10.085938 L 21.484375 10.085938 Z M 21.484375 9.410156 " fill-opacity="1" fill-rule="nonzero"/><path fill="#4c6f97" d="M 13.167969 10.183594 L 22.132812 10.183594 L 22.132812 10.304688 L 13.167969 10.304688 Z M 13.167969 10.183594 " fill-opacity="1" fill-rule="nonzero"/><path fill="#4c6f97" d="M 16.449219 10.503906 L 22.132812 10.503906 L 22.132812 10.636719 L 16.449219 10.636719 Z M 16.449219 10.503906 " fill-opacity="1" fill-rule="nonzero"/><g clip-path="url(#6441aa33c2)"><path fill="#82abe1" d="M 22.625 9.410156 L 27.195312 9.410156 L 27.195312 10.085938 L 22.625 10.085938 Z M 22.625 9.410156 " fill-opacity="1" fill-rule="nonzero"/></g><path fill="#89b6dd" d="M 3.746094 17.675781 L 10.199219 17.675781 L 10.199219 19.886719 L 3.746094 19.886719 Z M 3.746094 17.675781 " fill-opacity="1" fill-rule="nonzero"/><g clip-path="url(#dedd0dc87a)"><path fill="#4c6f97" d="M 5.824219 19.660156 L 8.847656 19.660156 L 8.847656 20.492188 L 5.824219 20.492188 Z M 5.824219 19.660156 " fill-opacity="1" fill-rule="nonzero"/></g><path fill="#020100" d="M 4.828125 18.804688 C 4.828125 18.894531 4.808594 18.96875 4.773438 19.027344 C 4.738281 19.089844 4.695312 19.121094 4.648438 19.121094 C 4.597656 19.121094 4.554688 19.089844 4.519531 19.027344 C 4.484375 18.96875 4.464844 18.894531 4.464844 18.804688 C 4.464844 18.71875 4.484375 18.644531 4.519531 18.582031 C 4.554688 18.523438 4.597656 18.492188 4.648438 18.492188 C 4.695312 18.492188 4.738281 18.523438 4.773438 18.582031 C 4.808594 18.644531 4.828125 18.71875 4.828125 18.804688 Z M 4.828125 18.804688 " fill-opacity="1" fill-rule="nonzero"/><path fill="#020100" d="M 5.386719 18.804688 C 5.386719 18.894531 5.371094 18.96875 5.335938 19.027344 C 5.300781 19.089844 5.257812 19.121094 5.207031 19.121094 C 5.15625 19.121094 5.113281 19.089844 5.078125 19.027344 C 5.042969 18.96875 5.027344 18.894531 5.027344 18.804688 C 5.027344 18.71875 5.042969 18.644531 5.078125 18.582031 C 5.113281 18.523438 5.15625 18.492188 5.207031 18.492188 C 5.257812 18.492188 5.300781 18.523438 5.335938 18.582031 C 5.371094 18.644531 5.386719 18.71875 5.386719 18.804688 Z M 5.386719 18.804688 " fill-opacity="1" fill-rule="nonzero"/><path fill="#020100" d="M 5.945312 18.804688 C 5.945312 18.894531 5.929688 18.96875 5.894531 19.027344 C 5.859375 19.089844 5.816406 19.121094 5.765625 19.121094 C 5.714844 19.121094 5.671875 19.089844 5.636719 19.027344 C 5.601562 18.96875 5.585938 18.894531 5.585938 18.804688 C 5.585938 18.71875 5.601562 18.644531 5.636719 18.582031 C 5.671875 18.523438 5.714844 18.492188 5.765625 18.492188 C 5.816406 18.492188 5.859375 18.523438 5.894531 18.582031 C 5.929688 18.644531 5.945312 18.71875 5.945312 18.804688 Z M 5.945312 18.804688 " fill-opacity="1" fill-rule="nonzero"/><path fill="#020100" d="M 6.507812 18.804688 C 6.507812 18.894531 6.488281 18.96875 6.453125 19.027344 C 6.417969 19.089844 6.375 19.121094 6.324219 19.121094 C 6.277344 19.121094 6.234375 19.089844 6.199219 19.027344 C 6.164062 18.96875 6.144531 18.894531 6.144531 18.804688 C 6.144531 18.71875 6.164062 18.644531 6.199219 18.582031 C 6.234375 18.523438 6.277344 18.492188 6.324219 18.492188 C 6.375 18.492188 6.417969 18.523438 6.453125 18.582031 C 6.488281 18.644531 6.507812 18.71875 6.507812 18.804688 Z M 6.507812 18.804688 " fill-opacity="1" fill-rule="nonzero"/><path fill="#020100" d="M 7.21875 18.671875 C 7.21875 18.796875 7.195312 18.902344 7.144531 18.988281 C 7.09375 19.078125 7.03125 19.121094 6.960938 19.121094 C 6.890625 19.121094 6.832031 19.078125 6.78125 18.988281 C 6.730469 18.902344 6.703125 18.796875 6.703125 18.671875 C 6.703125 18.550781 6.730469 18.441406 6.78125 18.355469 C 6.832031 18.269531 6.890625 18.222656 6.960938 18.222656 C 7.03125 18.222656 7.09375 18.269531 7.144531 18.355469 C 7.195312 18.441406 7.21875 18.550781 7.21875 18.671875 Z M 7.21875 18.671875 " fill-opacity="1" fill-rule="nonzero"/><path fill="#020100" d="M 8.089844 18.546875 C 8.089844 18.707031 8.054688 18.839844 7.992188 18.953125 C 7.925781 19.066406 7.851562 19.121094 7.757812 19.121094 C 7.667969 19.121094 7.589844 19.066406 7.527344 18.953125 C 7.464844 18.839844 7.429688 18.707031 7.429688 18.546875 C 7.429688 18.390625 7.464844 18.253906 7.527344 18.144531 C 7.589844 18.03125 7.667969 17.976562 7.757812 17.976562 C 7.851562 17.976562 7.925781 18.03125 7.992188 18.144531 C 8.054688 18.253906 8.089844 18.390625 8.089844 18.546875 Z M 8.089844 18.546875 " fill-opacity="1" fill-rule="nonzero"/><path fill="#020100" d="M 9.085938 18.398438 C 9.085938 18.597656 9.046875 18.769531 8.964844 18.910156 C 8.882812 19.050781 8.785156 19.121094 8.671875 19.121094 C 8.558594 19.121094 8.460938 19.050781 8.378906 18.910156 C 8.296875 18.769531 8.257812 18.597656 8.257812 18.398438 C 8.257812 18.199219 8.296875 18.027344 8.378906 17.886719 C 8.460938 17.746094 8.558594 17.675781 8.671875 17.675781 C 8.785156 17.675781 8.882812 17.746094 8.964844 17.886719 C 9.046875 18.027344 9.085938 18.199219 9.085938 18.398438 Z M 9.085938 18.398438 " fill-opacity="1" fill-rule="nonzero"/><path fill="#020100" d="M 23.082031 10.257812 C 23.082031 10.441406 23.027344 10.535156 22.921875 10.535156 C 22.816406 10.535156 22.761719 10.441406 22.761719 10.257812 C 22.761719 10.070312 22.816406 9.976562 22.921875 9.976562 C 23.027344 9.976562 23.082031 10.070312 23.082031 10.257812 Z M 23.082031 10.257812 " fill-opacity="1" fill-rule="nonzero"/><path fill="#020100" d="M 23.574219 10.257812 C 23.574219 10.441406 23.519531 10.535156 23.414062 10.535156 C 23.308594 10.535156 23.253906 10.441406 23.253906 10.257812 C 23.253906 10.070312 23.308594 9.976562 23.414062 9.976562 C 23.519531 9.976562 23.574219 10.070312 23.574219 10.257812 Z M 23.574219 10.257812 " fill-opacity="1" fill-rule="nonzero"/><path fill="#020100" d="M 24.066406 10.257812 C 24.066406 10.441406 24.015625 10.535156 23.90625 10.535156 C 23.800781 10.535156 23.75 10.441406 23.75 10.257812 C 23.75 10.070312 23.800781 9.976562 23.90625 9.976562 C 24.015625 9.976562 24.066406 10.070312 24.066406 10.257812 Z M 24.066406 10.257812 " fill-opacity="1" fill-rule="nonzero"/><path fill="#020100" d="M 24.5625 10.257812 C 24.5625 10.441406 24.507812 10.535156 24.402344 10.535156 C 24.296875 10.535156 24.242188 10.441406 24.242188 10.257812 C 24.242188 10.070312 24.296875 9.976562 24.402344 9.976562 C 24.507812 9.976562 24.5625 10.070312 24.5625 10.257812 Z M 24.5625 10.257812 " fill-opacity="1" fill-rule="nonzero"/><path fill="#020100" d="M 25.191406 10.136719 C 25.191406 10.246094 25.167969 10.339844 25.125 10.417969 C 25.078125 10.496094 25.027344 10.535156 24.964844 10.535156 C 24.902344 10.535156 24.847656 10.496094 24.800781 10.417969 C 24.757812 10.339844 24.734375 10.246094 24.734375 10.136719 C 24.734375 10.027344 24.757812 9.933594 24.800781 9.859375 C 24.847656 9.78125 24.902344 9.742188 24.964844 9.742188 C 25.027344 9.742188 25.078125 9.78125 25.125 9.859375 C 25.167969 9.933594 25.191406 10.027344 25.191406 10.136719 Z M 25.191406 10.136719 " fill-opacity="1" fill-rule="nonzero"/><path fill="#020100" d="M 25.957031 10.027344 C 25.957031 10.167969 25.929688 10.285156 25.871094 10.386719 C 25.816406 10.484375 25.746094 10.535156 25.667969 10.535156 C 25.585938 10.535156 25.519531 10.484375 25.460938 10.386719 C 25.40625 10.285156 25.378906 10.167969 25.378906 10.027344 C 25.378906 9.886719 25.40625 9.769531 25.460938 9.671875 C 25.519531 9.570312 25.585938 9.523438 25.667969 9.523438 C 25.746094 9.523438 25.816406 9.570312 25.871094 9.671875 C 25.929688 9.769531 25.957031 9.886719 25.957031 10.027344 Z M 25.957031 10.027344 " fill-opacity="1" fill-rule="nonzero"/><path fill="#020100" d="M 26.839844 9.894531 C 26.839844 10.070312 26.804688 10.222656 26.730469 10.347656 C 26.660156 10.472656 26.574219 10.535156 26.472656 10.535156 C 26.371094 10.535156 26.285156 10.472656 26.214844 10.347656 C 26.144531 10.222656 26.105469 10.070312 26.105469 9.894531 C 26.105469 9.71875 26.144531 9.570312 26.214844 9.445312 C 26.285156 9.320312 26.371094 9.257812 26.472656 9.257812 C 26.574219 9.257812 26.660156 9.320312 26.730469 9.445312 C 26.804688 9.570312 26.839844 9.71875 26.839844 9.894531 Z M 26.839844 9.894531 " fill-opacity="1" fill-rule="nonzero"/><path fill="#4c6f97" d="M 21.925781 12.628906 C 21.925781 12.789062 21.894531 12.941406 21.835938 13.089844 C 21.777344 13.238281 21.695312 13.367188 21.585938 13.480469 C 21.476562 13.59375 21.351562 13.679688 21.210938 13.742188 C 21.070312 13.804688 20.921875 13.835938 20.769531 13.835938 C 20.617188 13.835938 20.46875 13.804688 20.328125 13.742188 C 20.1875 13.679688 20.0625 13.59375 19.953125 13.480469 C 19.84375 13.367188 19.761719 13.238281 19.703125 13.089844 C 19.644531 12.941406 19.613281 12.789062 19.613281 12.628906 C 19.613281 12.46875 19.644531 12.316406 19.703125 12.167969 C 19.761719 12.019531 19.84375 11.890625 19.953125 11.777344 C 20.0625 11.664062 20.1875 11.578125 20.328125 11.515625 C 20.46875 11.453125 20.617188 11.425781 20.769531 11.425781 C 20.921875 11.425781 21.070312 11.453125 21.210938 11.515625 C 21.351562 11.578125 21.476562 11.664062 21.585938 11.777344 C 21.695312 11.890625 21.777344 12.019531 21.835938 12.167969 C 21.894531 12.316406 21.925781 12.46875 21.925781 12.628906 Z M 21.925781 12.628906 " fill-opacity="1" fill-rule="nonzero"/><path fill="#f1f1f3" d="M 12.574219 15.191406 C 12.230469 15.855469 11.554688 16.445312 10.679688 16.792969 L 10.644531 16.804688 C 10.542969 16.847656 10.4375 16.882812 10.332031 16.914062 L 10.246094 16.9375 C 9.46875 17.15625 8.703125 17.140625 8.078125 16.9375 C 7.503906 16.75 7.042969 16.40625 6.800781 15.9375 C 6.746094 15.832031 6.703125 15.722656 6.671875 15.609375 C 6.53125 15.097656 6.632812 14.5625 6.921875 14.066406 C 6.9375 14.042969 6.949219 14.019531 6.964844 13.996094 C 7.007812 13.929688 7.054688 13.863281 7.105469 13.796875 C 7.542969 13.214844 8.242188 12.722656 9.097656 12.464844 C 9.164062 12.445312 9.226562 12.429688 9.292969 12.410156 L 9.332031 12.402344 C 9.441406 12.375 9.554688 12.351562 9.664062 12.335938 C 10.09375 12.261719 10.523438 12.265625 10.953125 12.339844 C 11.484375 12.4375 11.945312 12.65625 12.277344 12.972656 C 12.511719 13.191406 12.671875 13.457031 12.761719 13.769531 C 12.890625 14.238281 12.8125 14.730469 12.574219 15.191406 Z M 12.574219 15.191406 " fill-opacity="1" fill-rule="nonzero"/><path fill="#36587b" d="M 12.574219 15.191406 C 12.230469 15.855469 11.554688 16.445312 10.679688 16.792969 L 10.644531 16.804688 L 10.042969 16.222656 C 9.988281 16.167969 9.945312 16.097656 9.917969 16.019531 C 9.894531 15.941406 9.890625 15.859375 9.902344 15.777344 C 9.917969 15.695312 9.953125 15.621094 10.003906 15.558594 C 10.050781 15.492188 10.113281 15.445312 10.1875 15.414062 L 10.71875 15.191406 L 10.742188 15.1875 L 10.769531 15.183594 L 11.980469 14.96875 L 11.984375 14.96875 Z M 12.574219 15.191406 " fill-opacity="1" fill-rule="nonzero"/><path fill="#9db0c1" d="M 10.71875 15.015625 C 10.71875 15.25 10.820312 15.421875 11.023438 15.523438 L 11.074219 15.546875 C 11.273438 15.648438 11.460938 15.628906 11.636719 15.488281 L 11.773438 15.382812 C 11.96875 15.222656 12.035156 15.019531 11.960938 14.773438 L 11.960938 14.765625 Z M 10.71875 15.015625 " fill-opacity="1" fill-rule="nonzero"/><path fill="#a9b9c8" d="M 10.421875 14.480469 C 10.421875 14.480469 10.457031 15.265625 11.109375 15.289062 C 11.761719 15.3125 12.082031 15.082031 12.132812 14.453125 C 12.132812 14.453125 12.222656 14.398438 12.332031 14.136719 C 12.441406 13.878906 12.394531 13.597656 12.273438 13.625 C 12.152344 13.648438 12.285156 12.953125 11.804688 12.863281 C 11.804688 12.863281 10.679688 12.71875 10.542969 12.90625 C 10.40625 13.09375 10.421875 13.757812 10.421875 13.757812 C 10.421875 13.757812 10.265625 13.691406 10.238281 13.78125 C 10.1875 13.925781 10.257812 14.261719 10.421875 14.480469 Z M 10.421875 14.480469 " fill-opacity="1" fill-rule="nonzero"/><path fill="#36587b" d="M 10.347656 13.730469 C 10.347656 13.730469 10.214844 13.082031 10.429688 12.777344 C 10.640625 12.476562 10.84375 12.269531 11.253906 12.324219 C 11.523438 12.367188 11.761719 12.484375 11.960938 12.679688 C 11.960938 12.679688 12.191406 12.59375 12.265625 12.910156 C 12.339844 13.230469 12.273438 13.621094 12.273438 13.621094 C 12.273438 13.621094 12.089844 13.023438 11.976562 12.976562 C 11.863281 12.929688 11.632812 12.839844 11.425781 12.921875 C 11.21875 13.007812 10.773438 12.855469 10.691406 12.902344 C 10.609375 12.953125 10.421875 13.753906 10.421875 13.753906 Z M 10.347656 13.730469 " fill-opacity="1" fill-rule="nonzero"/><path fill="#36587b" d="M 10.679688 16.792969 C 10.628906 16.890625 10.546875 16.9375 10.441406 16.9375 L 8.078125 16.9375 C 7.503906 16.75 7.046875 16.40625 6.800781 15.9375 L 7.472656 15.707031 L 7.472656 15.363281 L 7.484375 15.371094 L 8.101562 15.847656 L 9.242188 15.167969 L 9.375 15.316406 L 9.464844 15.414062 L 10.617188 16.421875 C 10.738281 16.527344 10.761719 16.652344 10.679688 16.792969 Z M 10.679688 16.792969 " fill-opacity="1" fill-rule="nonzero"/><path fill="#a9b9c8" d="M 6.957031 13.222656 C 6.957031 13.222656 6.730469 13.144531 6.675781 13.285156 C 6.625 13.425781 6.671875 14.058594 6.980469 14.078125 C 7.285156 14.101562 6.957031 13.222656 6.957031 13.222656 Z M 6.957031 13.222656 " fill-opacity="1" fill-rule="nonzero"/><path fill="#36587b" d="M 6.917969 13.058594 C 6.917969 13.058594 6.746094 12.03125 6.816406 11.578125 C 6.882812 11.125 7.417969 10.589844 7.945312 11.011719 C 7.945312 11.011719 8.351562 10.359375 9.515625 11.429688 C 9.515625 11.429688 9.703125 12.355469 9.695312 12.796875 C 9.691406 13.238281 9.695312 13.316406 9.695312 13.316406 L 9.382812 13.210938 C 9.382812 13.210938 9.320312 11.917969 9.023438 11.726562 C 8.722656 11.53125 7.234375 11.496094 7.152344 11.957031 C 7.070312 12.417969 6.917969 13.058594 6.917969 13.058594 Z M 6.917969 13.058594 " fill-opacity="1" fill-rule="nonzero"/><path fill="#a9b9c8" d="M 9.382812 13.210938 C 9.382812 13.210938 9.363281 11.925781 9.144531 11.722656 C 8.957031 11.550781 7.957031 11.410156 7.375 11.644531 C 7.195312 11.714844 7.089844 11.847656 7.058594 12.046875 C 7.015625 12.304688 6.949219 12.738281 6.917969 13.058594 C 6.867188 13.550781 6.980469 14.539062 7.292969 14.921875 C 7.34375 14.980469 7.40625 15.023438 7.480469 15.046875 L 7.480469 15.394531 L 8.054688 15.917969 L 9.375 15.363281 L 9.375 14.292969 L 9.421875 14.207031 C 9.421875 14.207031 9.671875 14.359375 9.820312 13.960938 C 9.96875 13.558594 9.933594 12.992188 9.382812 13.210938 Z M 9.382812 13.210938 " fill-opacity="1" fill-rule="nonzero"/><path fill="#36587b" d="M 8.730469 16.472656 L 7.953125 16.847656 C 7.863281 16.886719 7.824219 16.957031 7.832031 17.058594 C 7.84375 17.15625 7.894531 17.21875 7.988281 17.246094 C 8.753906 17.445312 10.1875 17.703125 11.183594 17.183594 C 11.265625 17.144531 11.304688 17.074219 11.300781 16.980469 C 11.292969 16.886719 11.246094 16.824219 11.160156 16.792969 L 10.175781 16.433594 Z M 8.730469 16.472656 " fill-opacity="1" fill-rule="nonzero"/><path fill="#9db0c1" d="M 8.875 15.898438 C 8.875 15.898438 8.808594 16.476562 8.472656 16.597656 C 8.140625 16.714844 9.699219 17.78125 10.367188 16.503906 L 9.992188 16.050781 Z M 8.875 15.898438 " fill-opacity="1" fill-rule="nonzero"/><path fill="#a9b9c8" d="M 8.757812 16.035156 C 8.757812 16.035156 8.511719 15.71875 8.605469 15.53125 C 8.609375 15.515625 8.617188 15.507812 8.628906 15.496094 C 8.660156 15.476562 8.667969 15.449219 8.65625 15.414062 C 8.53125 15.09375 8.582031 14.804688 8.804688 14.546875 C 9.140625 14.167969 9.246094 14.070312 9.570312 14.132812 C 9.894531 14.195312 10.320312 14.257812 10.375 14.886719 C 10.425781 15.511719 10.269531 16.140625 10.152344 16.339844 C 10.03125 16.542969 9.363281 16.921875 8.757812 16.035156 Z M 8.757812 16.035156 " fill-opacity="1" fill-rule="nonzero"/><path fill="#36587b" d="M 8.722656 15.984375 C 8.722656 15.984375 8.140625 15.695312 8.09375 15.195312 C 8.042969 14.695312 8.335938 13.949219 8.632812 13.796875 C 8.925781 13.644531 9.292969 13.710938 9.292969 13.710938 C 9.527344 13.601562 9.757812 13.609375 9.980469 13.738281 C 10.351562 13.941406 10.621094 14.210938 10.683594 14.640625 C 10.75 15.066406 10.535156 15.28125 10.519531 15.394531 C 10.5 15.507812 10.332031 15.703125 10.332031 15.703125 C 10.332031 15.703125 10.46875 14.878906 10.289062 14.554688 C 10.105469 14.226562 9.5625 14.066406 9.308594 14.160156 C 9.054688 14.253906 8.410156 14.679688 8.660156 15.449219 C 8.671875 15.480469 8.664062 15.507812 8.636719 15.527344 C 8.582031 15.566406 8.519531 15.675781 8.722656 15.984375 Z M 8.722656 15.984375 " fill-opacity="1" fill-rule="nonzero"/><g clip-path="url(#3220906ddb)"><path fill="#b6b99a" d="M 25.378906 11.671875 L 27.195312 11.671875 L 27.195312 11.925781 L 25.378906 11.925781 Z M 25.378906 11.671875 " fill-opacity="1" fill-rule="nonzero"/></g><g clip-path="url(#a06e4361f2)"><path fill="#b6b99a" d="M 25.378906 12.15625 L 27.195312 12.15625 L 27.195312 12.410156 L 25.378906 12.410156 Z M 25.378906 12.15625 " fill-opacity="1" fill-rule="nonzero"/></g><g clip-path="url(#37e7b17ea9)"><path fill="#b6b99a" d="M 25.378906 13.0625 L 27.195312 13.0625 L 27.195312 13.316406 L 25.378906 13.316406 Z M 25.378906 13.0625 " fill-opacity="1" fill-rule="nonzero"/><path fill="#b6b99a" d="M 25.378906 13.546875 L 27.195312 13.546875 L 27.195312 13.800781 L 25.378906 13.800781 Z M 25.378906 13.546875 " fill-opacity="1" fill-rule="nonzero"/></g><g clip-path="url(#e2f793b22a)"><path fill="#b6b99a" d="M 25.378906 14.453125 L 27.195312 14.453125 L 27.195312 14.707031 L 25.378906 14.707031 Z M 25.378906 14.453125 " fill-opacity="1" fill-rule="nonzero"/></g><g clip-path="url(#def20fafe9)"><path fill="#b6b99a" d="M 25.378906 14.9375 L 27.195312 14.9375 L 27.195312 15.195312 L 25.378906 15.195312 Z M 25.378906 14.9375 " fill-opacity="1" fill-rule="nonzero"/></g><g clip-path="url(#01edb9e675)"><path fill="#b6b99a" d="M 25.378906 15.84375 L 27.195312 15.84375 L 27.195312 16.101562 L 25.378906 16.101562 Z M 25.378906 15.84375 " fill-opacity="1" fill-rule="nonzero"/></g><g clip-path="url(#85e4e37df2)"><path fill="#b6b99a" d="M 25.378906 16.328125 L 27.195312 16.328125 L 27.195312 16.585938 L 25.378906 16.585938 Z M 25.378906 16.328125 " fill-opacity="1" fill-rule="nonzero"/></g><path fill="#506790" d="M 3.261719 16.714844 C 3.292969 16.734375 3.316406 16.757812 3.335938 16.789062 C 3.375 16.832031 3.40625 16.878906 3.4375 16.929688 C 3.46875 16.980469 3.496094 17.035156 3.519531 17.09375 C 3.542969 17.136719 3.550781 17.183594 3.554688 17.234375 L 3.941406 17.234375 C 3.941406 17.1875 3.933594 17.140625 3.917969 17.09375 C 3.902344 17.042969 3.882812 16.992188 3.859375 16.941406 C 3.839844 16.894531 3.816406 16.847656 3.789062 16.804688 C 3.769531 16.769531 3.742188 16.738281 3.710938 16.714844 L 5.050781 16.714844 L 5.050781 16.273438 L 3.261719 16.273438 Z M 3.261719 16.714844 " fill-opacity="1" fill-rule="nonzero"/><path fill="#506790" d="M 3.65625 14.082031 C 3.523438 14.148438 3.414062 14.246094 3.332031 14.375 C 3.25 14.503906 3.207031 14.648438 3.210938 14.800781 C 3.207031 14.957031 3.25 15.097656 3.332031 15.226562 C 3.414062 15.359375 3.523438 15.457031 3.660156 15.527344 C 3.976562 15.679688 4.292969 15.679688 4.609375 15.527344 C 4.742188 15.457031 4.851562 15.359375 4.9375 15.226562 C 5.109375 14.945312 5.109375 14.664062 4.9375 14.378906 C 4.851562 14.25 4.742188 14.152344 4.609375 14.082031 C 4.460938 14.003906 4.300781 13.96875 4.132812 13.972656 C 3.964844 13.96875 3.808594 14.003906 3.65625 14.082031 Z M 4.417969 14.457031 C 4.496094 14.488281 4.558594 14.53125 4.609375 14.597656 C 4.65625 14.65625 4.675781 14.722656 4.675781 14.800781 C 4.675781 14.878906 4.65625 14.949219 4.609375 15.011719 C 4.558594 15.074219 4.496094 15.121094 4.417969 15.148438 C 4.230469 15.21875 4.039062 15.21875 3.851562 15.148438 C 3.773438 15.121094 3.710938 15.074219 3.660156 15.011719 C 3.613281 14.949219 3.589844 14.878906 3.589844 14.800781 C 3.589844 14.722656 3.613281 14.65625 3.660156 14.597656 C 3.710938 14.53125 3.773438 14.488281 3.847656 14.457031 C 4.035156 14.386719 4.226562 14.386719 4.414062 14.457031 Z M 4.417969 14.457031 " fill-opacity="1" fill-rule="nonzero"/><path fill="#506790" d="M 3.65625 12.109375 C 3.523438 12.175781 3.414062 12.273438 3.332031 12.402344 C 3.25 12.53125 3.207031 12.671875 3.210938 12.828125 C 3.207031 12.984375 3.25 13.125 3.332031 13.253906 C 3.414062 13.382812 3.523438 13.484375 3.660156 13.554688 C 3.808594 13.628906 3.964844 13.664062 4.132812 13.660156 C 4.300781 13.664062 4.457031 13.628906 4.609375 13.554688 C 4.742188 13.484375 4.851562 13.386719 4.9375 13.253906 C 5.109375 12.972656 5.109375 12.6875 4.9375 12.40625 C 4.851562 12.277344 4.742188 12.175781 4.609375 12.109375 C 4.460938 12.03125 4.300781 11.996094 4.132812 11.996094 C 3.964844 11.996094 3.808594 12.03125 3.65625 12.109375 Z M 4.417969 12.484375 C 4.496094 12.511719 4.558594 12.558594 4.609375 12.625 C 4.65625 12.683594 4.675781 12.75 4.675781 12.828125 C 4.675781 12.90625 4.65625 12.976562 4.609375 13.035156 C 4.558594 13.101562 4.496094 13.148438 4.417969 13.175781 C 4.230469 13.246094 4.039062 13.246094 3.851562 13.175781 C 3.773438 13.148438 3.710938 13.101562 3.660156 13.035156 C 3.613281 12.976562 3.589844 12.90625 3.589844 12.828125 C 3.589844 12.75 3.613281 12.683594 3.660156 12.625 C 3.710938 12.558594 3.773438 12.511719 3.847656 12.484375 C 4.035156 12.414062 4.226562 12.414062 4.414062 12.484375 Z M 4.417969 12.484375 " fill-opacity="1" fill-rule="nonzero"/><path fill="#506790" d="M 3.65625 10.136719 C 3.523438 10.203125 3.414062 10.300781 3.332031 10.429688 C 3.25 10.558594 3.207031 10.699219 3.210938 10.855469 C 3.207031 11.007812 3.25 11.152344 3.332031 11.28125 C 3.414062 11.410156 3.523438 11.511719 3.660156 11.578125 C 3.808594 11.65625 3.964844 11.691406 4.132812 11.6875 C 4.300781 11.691406 4.457031 11.65625 4.609375 11.578125 C 4.742188 11.511719 4.851562 11.410156 4.9375 11.28125 C 5.109375 10.996094 5.109375 10.714844 4.9375 10.433594 C 4.851562 10.304688 4.746094 10.203125 4.609375 10.132812 C 4.460938 10.058594 4.300781 10.019531 4.132812 10.023438 C 3.964844 10.023438 3.808594 10.058594 3.65625 10.136719 Z M 4.417969 10.511719 C 4.496094 10.539062 4.558594 10.585938 4.609375 10.652344 C 4.65625 10.710938 4.675781 10.777344 4.675781 10.855469 C 4.675781 10.933594 4.65625 11.003906 4.609375 11.0625 C 4.558594 11.128906 4.496094 11.175781 4.417969 11.203125 C 4.230469 11.269531 4.039062 11.269531 3.851562 11.203125 C 3.773438 11.175781 3.710938 11.128906 3.660156 11.0625 C 3.613281 11.003906 3.589844 10.933594 3.589844 10.855469 C 3.589844 10.777344 3.613281 10.710938 3.660156 10.652344 C 3.710938 10.585938 3.773438 10.539062 3.847656 10.511719 C 4.035156 10.441406 4.226562 10.441406 4.414062 10.511719 Z M 4.417969 10.511719 " fill-opacity="1" fill-rule="nonzero"/><path fill="#506790" d="M 20.976562 18.214844 C 20.960938 18.238281 20.941406 18.261719 20.917969 18.277344 C 20.882812 18.308594 20.847656 18.335938 20.808594 18.363281 C 20.769531 18.390625 20.726562 18.414062 20.679688 18.4375 C 20.644531 18.453125 20.605469 18.464844 20.566406 18.464844 L 20.566406 18.796875 C 20.601562 18.796875 20.640625 18.789062 20.675781 18.777344 C 20.71875 18.765625 20.757812 18.75 20.796875 18.730469 C 20.835938 18.710938 20.871094 18.691406 20.90625 18.667969 C 20.933594 18.648438 20.957031 18.625 20.972656 18.601562 L 20.972656 19.75 L 21.324219 19.75 L 21.324219 18.214844 Z M 20.976562 18.214844 " fill-opacity="1" fill-rule="nonzero"/><path fill="#506790" d="M 23.058594 18.554688 C 23.003906 18.4375 22.925781 18.34375 22.824219 18.273438 C 22.722656 18.203125 22.613281 18.167969 22.488281 18.167969 C 22.367188 18.167969 22.257812 18.203125 22.152344 18.273438 C 22.050781 18.34375 21.972656 18.4375 21.917969 18.554688 C 21.796875 18.824219 21.796875 19.097656 21.917969 19.371094 C 21.972656 19.484375 22.050781 19.578125 22.152344 19.648438 C 22.378906 19.800781 22.601562 19.800781 22.824219 19.652344 C 22.925781 19.582031 23.003906 19.488281 23.058594 19.371094 C 23.179688 19.101562 23.179688 18.828125 23.058594 18.554688 Z M 22.761719 19.207031 C 22.738281 19.269531 22.699219 19.324219 22.652344 19.367188 C 22.605469 19.410156 22.550781 19.429688 22.488281 19.429688 C 22.429688 19.429688 22.371094 19.410156 22.324219 19.367188 C 22.273438 19.324219 22.238281 19.269531 22.214844 19.207031 C 22.160156 19.042969 22.160156 18.878906 22.214844 18.714844 C 22.234375 18.652344 22.273438 18.597656 22.324219 18.550781 C 22.371094 18.511719 22.429688 18.492188 22.488281 18.492188 C 22.550781 18.492188 22.605469 18.511719 22.652344 18.550781 C 22.703125 18.597656 22.738281 18.652344 22.761719 18.714844 C 22.816406 18.878906 22.816406 19.042969 22.761719 19.207031 Z M 22.761719 19.207031 " fill-opacity="1" fill-rule="nonzero"/><path fill="#506790" d="M 24.617188 18.554688 C 24.5625 18.4375 24.484375 18.34375 24.382812 18.273438 C 24.28125 18.203125 24.167969 18.167969 24.046875 18.167969 C 23.925781 18.167969 23.816406 18.203125 23.714844 18.273438 C 23.609375 18.34375 23.53125 18.4375 23.476562 18.554688 C 23.355469 18.824219 23.355469 19.097656 23.476562 19.371094 C 23.53125 19.488281 23.609375 19.582031 23.714844 19.652344 C 23.9375 19.800781 24.160156 19.800781 24.382812 19.652344 C 24.484375 19.582031 24.5625 19.488281 24.617188 19.371094 C 24.738281 19.101562 24.738281 18.828125 24.617188 18.554688 Z M 24.320312 19.207031 C 24.296875 19.269531 24.257812 19.324219 24.210938 19.367188 C 24.164062 19.410156 24.109375 19.429688 24.046875 19.429688 C 23.984375 19.429688 23.929688 19.410156 23.882812 19.367188 C 23.832031 19.324219 23.796875 19.269531 23.773438 19.207031 C 23.71875 19.042969 23.71875 18.878906 23.773438 18.714844 C 23.792969 18.652344 23.832031 18.597656 23.882812 18.550781 C 23.929688 18.511719 23.984375 18.492188 24.046875 18.492188 C 24.109375 18.492188 24.164062 18.511719 24.210938 18.550781 C 24.261719 18.597656 24.296875 18.652344 24.320312 18.714844 C 24.375 18.878906 24.375 19.042969 24.320312 19.207031 Z M 24.320312 19.207031 " fill-opacity="1" fill-rule="nonzero"/><path fill="#506790" d="M 26.175781 18.554688 C 26.121094 18.4375 26.042969 18.34375 25.941406 18.273438 C 25.839844 18.203125 25.726562 18.167969 25.605469 18.167969 C 25.484375 18.167969 25.375 18.203125 25.273438 18.273438 C 25.167969 18.34375 25.089844 18.4375 25.035156 18.554688 C 24.914062 18.824219 24.914062 19.097656 25.035156 19.371094 C 25.089844 19.484375 25.167969 19.578125 25.273438 19.648438 C 25.496094 19.796875 25.71875 19.796875 25.941406 19.648438 C 26.042969 19.578125 26.121094 19.484375 26.175781 19.371094 C 26.296875 19.097656 26.296875 18.824219 26.175781 18.554688 Z M 25.878906 19.207031 C 25.855469 19.269531 25.816406 19.324219 25.765625 19.367188 C 25.722656 19.410156 25.667969 19.429688 25.605469 19.429688 C 25.542969 19.429688 25.488281 19.410156 25.441406 19.367188 C 25.390625 19.324219 25.355469 19.269531 25.332031 19.207031 C 25.277344 19.042969 25.277344 18.878906 25.332031 18.714844 C 25.351562 18.652344 25.390625 18.597656 25.441406 18.550781 C 25.488281 18.511719 25.542969 18.492188 25.605469 18.492188 C 25.667969 18.492188 25.722656 18.511719 25.765625 18.550781 C 25.816406 18.597656 25.855469 18.652344 25.878906 18.714844 C 25.933594 18.878906 25.933594 19.042969 25.878906 19.207031 Z M 25.878906 19.207031 " fill-opacity="1" fill-rule="nonzero"/><path fill="#ef80a1" d="M 14.980469 12.414062 L 14.980469 13.707031 C 14.980469 14.011719 14.84375 14.226562 14.574219 14.34375 C 14.523438 14.367188 14.476562 14.398438 14.433594 14.433594 L 14.210938 14.613281 L 13.992188 14.4375 C 13.949219 14.402344 13.902344 14.375 13.847656 14.351562 L 13.84375 14.351562 C 13.574219 14.230469 13.4375 14.015625 13.4375 13.710938 L 13.4375 12.414062 L 13.511719 12.414062 C 13.582031 12.402344 13.691406 12.347656 13.753906 12.15625 C 13.753906 12.15625 13.96875 12.335938 14.183594 12.023438 C 14.183594 12.023438 14.359375 12.386719 14.636719 12.136719 C 14.636719 12.136719 14.660156 12.382812 14.980469 12.414062 Z M 14.980469 12.414062 " fill-opacity="1" fill-rule="nonzero"/><path fill="#1582d4" d="M 14.210938 12.824219 L 14.210938 14.609375 L 13.992188 14.4375 C 13.949219 14.402344 13.902344 14.371094 13.847656 14.347656 L 13.84375 14.347656 C 13.574219 14.226562 13.4375 14.015625 13.4375 13.707031 L 13.4375 12.824219 Z M 14.210938 12.824219 " fill-opacity="1" fill-rule="nonzero"/><path fill="#f4f4f6" d="M 14.980469 12.414062 L 14.980469 13.023438 L 13.4375 13.023438 L 13.4375 12.414062 L 13.511719 12.414062 C 13.582031 12.402344 13.691406 12.347656 13.753906 12.15625 C 13.753906 12.15625 13.96875 12.335938 14.183594 12.023438 C 14.183594 12.023438 14.359375 12.386719 14.636719 12.136719 C 14.636719 12.136719 14.660156 12.382812 14.980469 12.414062 Z M 14.980469 12.414062 " fill-opacity="1" fill-rule="nonzero"/><g clip-path="url(#12def188cf)"><g fill="#ffffff" fill-opacity="1"><g transform="translate(28.935483, 29.712558)"><g><path d="M 0.4375 0.015625 C 0.363281 0.015625 0.300781 0.00390625 0.25 -0.015625 C 0.195312 -0.046875 0.15625 -0.0820312 0.125 -0.125 C 0.09375 -0.175781 0.078125 -0.238281 0.078125 -0.3125 C 0.078125 -0.375 0.09375 -0.425781 0.125 -0.46875 C 0.15625 -0.519531 0.195312 -0.554688 0.25 -0.578125 C 0.3125 -0.609375 0.390625 -0.632812 0.484375 -0.65625 C 0.546875 -0.664062 0.59375 -0.675781 0.625 -0.6875 C 0.664062 -0.695312 0.691406 -0.707031 0.703125 -0.71875 C 0.710938 -0.738281 0.71875 -0.765625 0.71875 -0.796875 C 0.71875 -0.828125 0.707031 -0.851562 0.6875 -0.875 C 0.664062 -0.894531 0.625 -0.90625 0.5625 -0.90625 C 0.5 -0.90625 0.441406 -0.890625 0.390625 -0.859375 C 0.335938 -0.828125 0.289062 -0.789062 0.25 -0.75 L 0.21875 -0.75 L 0.109375 -0.921875 C 0.160156 -0.984375 0.226562 -1.03125 0.3125 -1.0625 C 0.394531 -1.101562 0.484375 -1.125 0.578125 -1.125 C 0.722656 -1.125 0.828125 -1.09375 0.890625 -1.03125 C 0.960938 -0.96875 1 -0.878906 1 -0.765625 L 1 -0.28125 C 1 -0.238281 1.019531 -0.21875 1.0625 -0.21875 C 1.070312 -0.21875 1.085938 -0.21875 1.109375 -0.21875 L 1.125 -0.21875 L 1.140625 -0.03125 C 1.128906 -0.0195312 1.109375 -0.0078125 1.078125 0 C 1.046875 0.0078125 1.015625 0.015625 0.984375 0.015625 C 0.921875 0.015625 0.867188 0.00390625 0.828125 -0.015625 C 0.796875 -0.046875 0.769531 -0.09375 0.75 -0.15625 L 0.734375 -0.15625 C 0.679688 -0.0390625 0.582031 0.015625 0.4375 0.015625 Z M 0.515625 -0.1875 C 0.578125 -0.1875 0.628906 -0.207031 0.671875 -0.25 C 0.710938 -0.289062 0.734375 -0.351562 0.734375 -0.4375 L 0.734375 -0.546875 L 0.703125 -0.546875 C 0.691406 -0.535156 0.671875 -0.523438 0.640625 -0.515625 C 0.617188 -0.503906 0.582031 -0.492188 0.53125 -0.484375 C 0.46875 -0.472656 0.421875 -0.453125 0.390625 -0.421875 C 0.367188 -0.398438 0.359375 -0.367188 0.359375 -0.328125 C 0.359375 -0.285156 0.367188 -0.25 0.390625 -0.21875 C 0.421875 -0.195312 0.460938 -0.1875 0.515625 -0.1875 Z M 0.515625 -0.1875 "/></g></g></g></g></svg>